<svg width="158" height="55" viewBox="0 0 158 55" fill="none" xmlns="http://www.w3.org/2000/svg">
<g clip-path="url(#clip0_1491_3)">
<path d="M19.4289 41.6863C20.2258 42.4011 20.841 43.2312 21.2829 44.1767C21.7219 45.1222 21.9512 46.0987 21.968 47.1033C21.9847 48.1079 21.7722 49.0872 21.3332 50.0411C20.8914 50.9951 20.2929 51.8393 19.5295 52.5709C18.7689 53.3026 17.8238 53.8907 16.6996 54.3353C15.5727 54.7771 14.3758 54.9994 13.1063 54.9994H-0.000244141V29.4453H12.4715C13.6404 29.4453 14.745 29.6676 15.7852 30.1094C16.8255 30.5512 17.7035 31.1394 18.4138 31.8738C19.1241 32.6055 19.6833 33.4412 20.0888 34.3783C20.4943 35.3154 20.7068 36.2693 20.7236 37.2401C20.7571 38.8751 20.3265 40.3581 19.4289 41.6863ZM12.4715 39.3085C13.3859 39.3085 14.0543 39.0861 14.4765 38.6443C14.8149 38.287 14.9855 37.8423 14.9855 37.3161C14.9687 36.6689 14.7897 36.1624 14.4514 35.7966C14.113 35.4307 13.453 35.2478 12.4715 35.2478H5.76585V39.3113H12.4715V39.3085ZM12.4715 45.0856H5.76585V49.1997H13.1063C13.783 49.1997 14.3451 49.1434 14.7953 49.0337C15.2427 48.924 15.5643 48.7579 15.76 48.5356C15.9558 48.3133 16.0816 48.1051 16.1404 47.9109C16.1991 47.7139 16.2214 47.4719 16.2047 47.1821C16.1879 45.7863 15.156 45.0856 13.1063 45.0856H12.4715Z" fill="#444443"/>
<path d="M30.2987 0H36.062V14.5654C36.062 16.4057 36.5961 17.8268 37.6615 18.8342C38.6263 19.7375 39.8287 20.1878 41.2688 20.1878C42.7089 20.1878 43.9086 19.7375 44.8733 18.8342C45.9555 17.8296 46.498 16.4057 46.498 14.5654V0H52.2361V14.5654C52.2361 16.3016 51.9313 17.9056 51.3217 19.3689C50.7121 20.835 49.8648 22.0675 48.7826 23.075C47.7676 24.0289 46.6071 24.7493 45.304 25.2333C44.0009 25.7201 42.653 25.9621 41.266 25.9621C39.879 25.9621 38.5312 25.7201 37.2281 25.2333C35.925 24.7465 34.7645 24.0289 33.7494 23.075C32.6644 22.0703 31.8199 20.835 31.2103 19.3689C30.6007 17.9028 30.2959 16.3016 30.2959 14.5654V0H30.2987Z" fill="#444443"/>
<path d="M54.937 0.205078H60.7003V25.7592H54.937V0.205078Z" fill="#444443"/>
<path d="M63.3168 0.205078H69.0801V19.9595H76.4625V25.7592H63.314V0.205078H63.3168Z" fill="#444443"/>
<path d="M84.277 25.7592H78.5137V0.205078H105.306C106.964 0.205078 108.535 0.44427 110.015 0.919839C111.497 1.39822 112.783 2.04826 113.874 2.87558C114.964 3.7029 115.904 4.65686 116.692 5.73744C117.481 6.82084 118.071 7.98303 118.471 9.22682C118.868 10.4706 119.064 11.7257 119.055 12.9948C119.047 14.2639 118.843 15.5218 118.446 16.7628C118.049 18.0066 117.45 19.1659 116.656 20.2381C115.859 21.3102 114.917 22.2614 113.826 23.0887C112.733 23.916 111.455 24.566 109.992 25.0444C108.527 25.52 106.967 25.7592 105.308 25.7592H84.2826H84.277ZM84.277 6.00477V19.9567H105.303C106.723 19.9567 107.965 19.7597 109.022 19.3685C110.079 18.9774 110.91 18.4456 111.511 17.7702C112.112 17.0976 112.559 16.3575 112.856 15.5471C113.152 14.7395 113.3 13.8728 113.3 12.9526C113.3 12.0324 113.161 11.1769 112.881 10.3834C112.601 9.58983 112.165 8.85537 111.572 8.17438C110.979 7.49339 110.146 6.96154 109.072 6.57602C107.996 6.19331 106.74 6.00196 105.3 6.00196H84.2742L84.277 6.00477Z" fill="#444443"/>
<path d="M157.895 25.7564H151.751L149.794 20.5448H134.666L132.708 25.7564H126.564L136.162 0.205078H142.23L136.849 14.7451H147.61L142.23 0.205078H148.298L157.895 25.7564Z" fill="#444443"/>
<path d="M53.2987 55H47.1551L45.1976 49.7885H30.0693L28.1119 55H21.9683L31.5654 29.4487H37.6335L32.2533 43.9888H43.0137L37.6335 29.4487H43.7016L53.2987 55Z" fill="#444443"/>
<path d="M27.1273 12.3926C27.1776 12.4432 27.2195 12.4939 27.2531 12.5446C28.5897 14.0275 29.2665 15.7976 29.2832 17.8602C29.3168 19.9567 28.6736 21.752 27.3538 23.2519C26.6435 24.0342 25.771 24.6476 24.7392 25.0923C23.7073 25.5341 22.5971 25.7564 21.4115 25.7564H-0.000244141V0.205078H20.8802C21.9987 0.205078 23.0474 0.44427 24.0289 0.919839C25.0104 1.39822 25.8158 2.02856 26.4421 2.81086C27.6278 4.26008 28.2374 5.98789 28.271 7.9971C28.2877 9.63204 27.9074 11.0981 27.1273 12.3926ZM20.8802 10.0682C21.2353 10.0682 21.4842 10.0288 21.6296 9.95284C21.7722 9.87686 21.912 9.75304 22.0491 9.58139C22.3539 9.20712 22.5049 8.69497 22.5049 8.04775C22.5049 7.40052 22.3343 6.87993 21.9959 6.48878C21.8449 6.30024 21.6995 6.17361 21.5653 6.10608C21.4283 6.03854 21.2018 6.00477 20.8802 6.00477H5.76306V10.0682H20.8802ZM7.87151 15.8426H5.76306V19.9567H21.4115C22.1553 19.9567 22.7062 19.7597 23.0613 19.3685C23.3829 19.0112 23.5451 18.5328 23.5451 17.939C23.5283 17.3425 23.341 16.85 22.9858 16.456C22.6307 16.048 22.105 15.8426 21.4115 15.8426H7.87151Z" fill="#444443"/>
<path d="M54.7743 29.4453H60.5376V49.1997H73.5127V54.9994H54.7715V29.4453H54.7743Z" fill="#444443"/>
<path d="M74.8353 29.4453H80.5986V49.1997H93.5737V54.9994H74.8325V29.4453H74.8353Z" fill="#444443"/>
<path d="M105.159 29.5359H125.928C127.807 29.5359 129.532 29.9074 131.107 30.6474C132.681 31.3875 133.984 32.3978 135.016 33.6753C136.929 36.0447 137.851 38.915 137.784 42.2862C137.7 45.6096 136.683 48.4433 134.736 50.7958C133.704 52.0565 132.421 53.0583 130.889 53.7984C129.356 54.5385 127.701 54.9099 125.925 54.9099H105.156C103.465 54.9099 101.89 54.5272 100.433 53.759C98.9764 52.9936 97.774 51.9693 96.826 50.6917C95.0811 48.342 94.1863 45.5392 94.1359 42.2834C94.0856 38.96 94.9217 36.1263 96.6499 33.7738C97.581 32.4794 98.7919 31.4494 100.282 30.6812C101.773 29.9158 103.397 29.5303 105.156 29.5303L105.159 29.5359ZM105.159 35.3356C104.228 35.3356 103.467 35.4875 102.875 35.7943C102.282 36.101 101.748 36.5709 101.275 37.1985C100.833 37.8119 100.492 38.5576 100.246 39.4356C99.9999 40.3136 99.8852 41.2253 99.902 42.1708C99.9188 43.1164 100.067 44.0422 100.347 44.9427C100.626 45.846 100.995 46.6029 101.451 47.2164C101.924 47.8636 102.45 48.3448 103.026 48.66C103.602 48.9751 104.312 49.1327 105.159 49.1327H125.928C127.757 49.1327 129.219 48.4602 130.321 47.1151C130.83 46.4847 131.235 45.7362 131.54 44.8667C131.845 43.9971 132.004 43.0995 132.021 42.1708C132.038 41.2422 131.915 40.353 131.652 39.5003C131.389 38.6477 131.02 37.9245 130.547 37.3279C130.022 36.6807 129.395 36.1854 128.668 35.8449C127.941 35.5044 127.027 35.3328 125.925 35.3328H105.156L105.159 35.3356Z" fill="#444443"/>
<path d="M138.731 31.0239H158.029V36.8236H151.251V56.5752H145.487V36.8236H138.734V31.0239H138.731Z" fill="#444443"/>
</g>
<defs>
<clipPath id="clip0_1491_3">
<rect width="158" height="55" fill="white"/>
</clipPath>
</defs>
</svg>
