<?xml version="1.0" encoding="UTF-8"?><svg id="Layer_2" xmlns="http://www.w3.org/2000/svg" viewBox="0 0 1257.77 190.58"><g id="Layer_1-2"><g id="OFMByT.tif"><path d="M1253.05,137.9c1.57-.01,4.43-1.3,4.47-2.13.38-6.56.21-13.16.21-20.1-18.33,0-35.96-.12-53.59.1-3.77.05-5.55-1.11-6.91-4.6-9.61-24.73-19.43-49.38-29.19-74.05-4.49-11.35-9-22.7-13.44-33.92h-29.13c-.73,1.7-1.5,3.34-2.17,5.02-7.74,19.59-15.46,39.18-23.2,58.77-12.69,32.07-25.36,64.15-38.12,96.19-.68,1.7-2.06,4.37-3.21,4.43-8.39.38-16.8.2-25.79.2V3.48h-22.43v159.56c-2.36-1.99-3.82-4.18-5.22-6.4-31.52-49.84-63.01-99.7-94.6-149.5-1.04-1.63-2.91-3.8-4.47-3.86-8.95-.37-17.92-.18-27.48-.18v164.37h-49.7V3.37h-22.45v164.23h-45.13c.52-2.09.97-3.84,1.39-5.6,4.47-18.54,2.41-35.67-11.26-50.09-7.49-7.91-16.82-13.05-27.18-16.05-18.97-5.5-38.13-10.36-57.03-16.08-6.9-2.1-13.73-5.2-19.78-9.09-7.85-5.03-10.58-12.88-8.31-22.18,2.94-12.09,11.39-18.93,22.6-22.4,15.95-4.94,32.19-4.96,48.16-.01,12.31,3.81,21.07,11.76,24.88,24.43.71,2.33,1.18,4.73,1.85,7.45,7.32-.6,14.35-1.17,21.81-1.79-.27-2.56-.29-4.55-.72-6.44-5.28-23.47-19.59-38.7-42.59-45.58-6.46-1.94-13.24-2.81-19.88-4.17h-17.98c-6.82,1.37-13.81,2.18-20.42,4.22-20.27,6.22-34.9,18.63-39.73,39.98-3.77,16.72.8,31.26,14.15,42.52,8.8,7.43,19.23,11.8,30.16,14.92,18.04,5.14,36.16,9.95,54.21,15.02,3.18.89,6.3,2.15,9.26,3.62,14.34,7.1,19.57,17.84,16.49,33.51q-2.78,14.11-16.94,14.11c-25.97,0-51.94-.07-77.91.07-3.46.02-5.68-.83-6.82-4.19-2.63-7.77-5.34-15.52-8.24-23.89h-21.94c2.11,9.4,4.11,18.32,6.19,27.57h-37.95c.88-4.67,1.91-9.28,2.58-13.95,4-27.86-11.96-46.98-32.22-54.52-15.49-5.78-31.81-9.33-47.67-14.14-10.31-3.13-20.63-6.33-30.63-10.28-6.94-2.74-12.51-7.57-14.52-15.37-2.47-9.63,2.02-20.7,11.17-27.37,6.91-5.03,14.81-7.44,23.17-8.38,11.46-1.3,22.92-1.34,34.14,1.88,16.24,4.68,26.23,15.06,28.78,32.6,7.2-.54,14.26-1.08,21.99-1.66-.3-2.62-.34-4.89-.84-7.05-5.86-25.61-24.24-42.68-50.65-47.16-3.9-.66-7.79-1.37-11.68-2.06h-17.99c-6.81,1.38-13.78,2.25-20.41,4.22-16.53,4.91-29.44,14.47-36.69,30.59-9.46,21.03-3.22,42.68,15.95,55.55,11.8,7.92,25.35,11.47,38.78,15.25,13.42,3.77,26.91,7.27,40.37,10.9.96.25,1.89.61,2.83.94,25.9,8.9,28.32,26.51,19.85,47.8-.49,1.22-2.65,2.52-4.04,2.53-29.64.15-59.28.16-88.92-.03-1.6-.01-4.05-1.72-4.66-3.22-3.12-7.78-5.76-15.75-8.88-24.5h-21.87c2.1,9.29,4.12,18.22,6.21,27.46h-153.61v-29.86h82.81v-22.64h-82.96V25.78h114.21V3.36h-136.89v164.24h-45.83V3.1c-10.34,0-20.13-.17-29.9.2-1.3.05-3.01,2.61-3.68,4.33-11.84,30.44-23.55,60.94-35.29,91.42-7.08,18.41-14.16,36.82-21.26,55.23-.65,1.68-1.41,3.31-2.54,5.94C96.78,107.32,76.7,55.26,56.66,3.31h-31.84v165.25H0v21.94h47.19V44.52c1.53,1.23,2.22,2.65,2.79,4.12,17.67,45.8,35.35,91.58,52.89,137.42,1.27,3.3,2.77,4.7,6.41,4.46,5.14-.33,10.34-.39,15.47.02,4.05.32,5.73-1.2,7.14-4.9,17.33-45.39,34.83-90.71,52.31-136.04.62-1.6,1.4-3.13,2.1-4.7.39.06.77.12,1.15.19v145.02h713.94V36.59c2.04,1.25,3.12,2.81,4.13,4.41,30.64,48.43,61.3,96.86,91.82,145.36,1.92,3.05,3.93,4.19,7.54,4.17,22.15-.18,44.3-.16,66.44-.01,3.21.02,4.65-1.03,5.77-3.95,5.71-14.86,11.69-29.61,17.44-44.46,1.15-2.97,2.52-4.4,6.06-4.38,26.31.2,52.63.2,78.94.12,3.16,0,4.63,1.06,5.78,4.04,5.71,14.86,11.78,29.57,17.49,44.43,1.18,3.07,2.53,4.28,5.99,4.22,14.65-.24,29.31-.09,43.97-.11,1.58-.01,3.17-.18,4.65-.27v-22.26h-5.72c-9.32,0-18.65.08-27.97-.09-1.56-.03-4.04-.76-4.51-1.84-3.83-8.94-7.28-18.04-11.12-27.79,2.47-.11,4.23-.26,6-.26,12.99.01,25.98.13,38.96-.02ZM1105.21,115.36c11.47-29.02,22.81-57.7,34.15-86.37.42.03.84.06,1.26.1,11.3,28.57,22.59,57.14,34.11,86.27h-69.52Z" fill="#393939"/></g></g></svg>