<?xml version="1.0" encoding="UTF-8" standalone="no"?>
<svg
   xmlns:dc="http://purl.org/dc/elements/1.1/"
   xmlns:cc="http://creativecommons.org/ns#"
   xmlns:rdf="http://www.w3.org/1999/02/22-rdf-syntax-ns#"
   xmlns:svg="http://www.w3.org/2000/svg"
   xmlns="http://www.w3.org/2000/svg"
   xmlns:sodipodi="http://sodipodi.sourceforge.net/DTD/sodipodi-0.dtd"
   xmlns:inkscape="http://www.inkscape.org/namespaces/inkscape"
   style="fill:none"
   viewBox="0 0 1000 985.61383"
   class="svelte-ao381y"
   version="1.1"
   id="svg103"
   sodipodi:docname="A.svg"
   width="1000"
   height="985.61383"
   inkscape:version="0.92.4 (5da689c313, 2019-01-14)">
  <metadata
     id="metadata109">
    <rdf:RDF>
      <cc:Work
         rdf:about="">
        <dc:format>image/svg+xml</dc:format>
        <dc:type
           rdf:resource="http://purl.org/dc/dcmitype/StillImage" />
        <dc:title></dc:title>
      </cc:Work>
    </rdf:RDF>
  </metadata>
  <defs
     id="defs107" />
  <sodipodi:namedview
     pagecolor="#ffffff"
     bordercolor="#111111"
     borderopacity="1"
     objecttolerance="10"
     gridtolerance="10"
     guidetolerance="10"
     inkscape:pageopacity="0"
     inkscape:pageshadow="2"
     inkscape:window-width="1920"
     inkscape:window-height="1017"
     id="namedview105"
     showgrid="false"
     fit-margin-top="0"
     fit-margin-left="0"
     fit-margin-right="0"
     fit-margin-bottom="0"
     inkscape:zoom="0.32593203"
     inkscape:cx="1186.5531"
     inkscape:cy="-10.505193"
     inkscape:window-x="1912"
     inkscape:window-y="-8"
     inkscape:window-maximized="1"
     inkscape:current-layer="svg103" />
  <path
     d="M 471.85547,173.85703 487.43125,0 l 153.84141,13.8707 -3.35547,39.45758 -104.47657,-9.56484 -3.11484,33.95781 77.87813,6.935 -3.59532,37.78437 -77.63828,-7.17421 -5.75078,62.89531 z"
     id="path81"
     style="fill:#000000;stroke-width:1"
     inkscape:connector-curvature="0" />
  <path
     d="m 676.25703,235.31719 c -22.28672,-12.42656 -38.86953,-33.00469 -46.24922,-57.39453 -1.66172,-11.95625 -0.85859,-24.125 2.35469,-35.7625 3.21406,-11.63672 8.77266,-22.49688 16.33672,-31.91563 l 50.08125,-74.13344 41.21797,27.73993 -52.95938,78.4396 c -4.24297,5.73126 -7.33515,12.22735 -9.10625,19.13126 -1.19219,5.5164 -1.19219,11.22343 0,16.73984 1.19688,5.05625 3.4875,9.79062 6.71094,13.87109 7.38203,8.52735 16.88828,14.96016 27.55703,18.65235 5.12344,1.19296 10.45313,1.19296 15.57656,0 5.4625,-1.10391 10.61563,-3.38828 15.09688,-6.69532 5.79844,-4.22968 10.75469,-9.50156 14.6164,-15.54531 l 52.95469,-78.2 41.21875,27.74141 -50.32031,74.13359 c -5.92969,10.46406 -13.86719,19.65469 -23.36875,27.04219 -9.5,7.3875 -20.37031,12.82656 -31.98594,16.00312 -24.95156,2.75235 -49.98984,-4.37343 -69.73203,-19.84765 z"
     id="path83"
     style="fill:#000000;stroke-width:1"
     inkscape:connector-curvature="0" />
  <path
     d="m 765.63281,317.59922 116.69531,-66.72188 -30.1875,-52.61171 34.98438,-19.84766 85.0625,148.26875 -34.98438,19.84765 -30.1875,-52.84921 -116.9375,66.72031 z"
     id="path85"
     style="fill:#000000;stroke-width:1"
     inkscape:connector-curvature="0" />
  <path
     d="m 816.21094,478.26953 c -3.92188,-25.21328 2.17968,-50.95859 17.01562,-71.74219 8.45313,-8.675 18.59375,-15.52734 29.80469,-20.13437 11.21094,-4.60625 23.25,-6.86953 35.36719,-6.65 l 89.625,-5.97813 3.11718,49.50235 -95.85156,6.21797 c -7.11719,0.26328 -14.10937,1.8875 -20.60937,4.78359 -5.1875,2.16016 -9.78907,5.52031 -13.42188,9.80391 -3.4375,4.06484 -5.82031,8.91015 -6.94531,14.11015 -0.85938,5.54688 -0.85938,11.19141 0,16.73907 0.35156,5.55 1.47656,11.02343 3.35156,16.26093 1.78125,4.93282 4.83594,9.30703 8.86719,12.67578 4.14062,3.7211 9.04687,6.4961 14.375,8.13125 6.95312,1.82891 14.16406,2.47422 21.32812,1.91172 l 94.41407,-6.21797 3.35156,49.50313 -89.61719,5.73906 c -11.88281,1.74766 -23.99219,1.12656 -35.63281,-1.8289 -11.64063,-2.95547 -22.57813,-8.18594 -32.17969,-15.38907 -17.30469,-18.16562 -26.76562,-42.38047 -26.35937,-67.43828 z"
     id="path87"
     style="fill:#000000;stroke-width:1"
     inkscape:connector-curvature="0" />
  <path
     d="m 763.00312,688.72969 c 4.97657,-1.43594 10.17969,-1.92266 15.33672,-1.43516 5.03516,0 9.82422,7.8e-4 14.85547,1.91406 l 14.14063,2.39063 c 4.28125,0.71797 8.65625,0.71797 12.9375,0 4.39843,-0.78047 8.52343,-2.67422 11.98437,-5.5 4.53906,-3.59375 8.08594,-8.28594 10.29688,-13.63125 L 855.5,646.40234 l -57.03125,-28.45781 22.04687,-44.24219 156.47657,77.7211 -42.65625,85.61328 c -7.96875,19.71484 -21.4375,36.73125 -38.82032,49.02578 -6.28906,3.65625 -13.44531,5.57812 -20.72656,5.57812 -7.28125,0 -14.42969,-1.92187 -20.72656,-5.57812 -6.42969,-2.99219 -12.02344,-7.50703 -16.29688,-13.15469 -3.51562,-5.15703 -5.8125,-11.04609 -6.71093,-17.21875 -1.0625,-6.6539 -1.0625,-13.43359 0,-20.08672 1.52343,-7.48046 3.60156,-14.83437 6.23437,-22.00078 -3.45312,7.34375 -8.4375,13.86563 -14.61719,19.13047 -4.66406,3.60391 -10.0625,6.13516 -15.82031,7.41406 -5.47656,0.83282 -11.04687,0.83282 -16.53125,0 -5.75,0 -11.26094,-1.43515 -17.01172,-2.63046 l -17.01562,-2.86954 c -5.64844,-0.71796 -11.36406,-0.71796 -17.0125,0 z m 102.08282,9.32656 c -9.58594,19.13125 -7.67188,32.04453 5.50781,38.50156 13.17969,6.45703 23.96094,7.8e-4 33.54687,-19.13125 l 18.9375,-37.78437 -39.0625,-19.37032 z"
     id="path89"
     style="fill:#000000;stroke-width:1"
     inkscape:connector-curvature="0" />
  <path
     d="m 719.14453,744.94609 82.66797,153.76485 -142.33438,76.05468 -18.6914,-34.67968 98.48594,-52.85157 -13.89766,-26.30468 -76.68203,41.13281 -17.0125,-31.32813 76.6789,-41.13281 -14.13671,-26.54687 -103.51719,55.48437 -18.69141,-34.91406 z"
     id="path91"
     style="fill:#000000;stroke-width:1"
     inkscape:connector-curvature="0" />
  <path
     d="m 407.39844,803.28125 c 9.46172,2.74219 18.67968,6.25781 27.55781,10.52344 14.92109,6.96875 28.79375,15.98437 41.21484,26.78125 4.47266,4.07031 8.6375,8.46875 12.46094,13.15625 l -30.43281,28.9375 c -7.625,-9.33594 -16.68281,-17.41407 -26.83828,-23.91407 -12.26719,-8.76562 -25.97266,-15.32031 -40.49844,-19.375 -8.34844,-3.03906 -17.28828,-4.10156 -26.11797,-3.10937 -2.56484,0.10937 -5.0375,0.98437 -7.09062,2.52344 -2.05313,1.53906 -3.58985,3.65625 -4.41094,6.08593 0,3.58594 -7.8e-4,7.17188 5.51094,10.76563 6.77812,4.60937 13.90937,8.6875 21.32656,12.19531 l 29.47422,14.34375 c 7.46093,3.75 14.6664,7.97656 21.5664,12.67188 6.53985,4.14843 12.36485,9.3125 17.25235,15.3125 4.50703,5.35937 7.77968,11.64843 9.58593,18.41406 2.13672,7.25781 2.13672,14.97656 0,22.23437 -2.10625,7.33594 -6.0664,14.00782 -11.50156,19.375 -5.67656,5.75 -12.7914,9.875 -20.60781,11.95313 -9.57969,2.69531 -19.53516,3.82812 -29.47656,3.35156 -12.76563,-0.71094 -25.39688,-2.95312 -37.61953,-6.69531 -9.79688,-2.76563 -19.33594,-6.36719 -28.51407,-10.76563 -7.47422,-3.48437 -14.61328,-7.64843 -21.32734,-12.42968 -9.94453,-6.51563 -18.76797,-14.58594 -26.12109,-23.91407 l 30.9125,-26.78906 c 6.39375,9.02344 14.54296,16.67188 23.9625,22.48438 10.63125,7.24218 22.3625,12.73437 34.74453,16.25781 21.80625,6.46094 33.78828,5.25781 36.42343,-3.82813 0,-4.0625 0,-8.125 -5.99062,-12.42968 -6.775,-5.08594 -14.08438,-9.42188 -21.80391,-12.91407 l -26.8375,-12.67968 c -8.25703,-4.14063 -16.25859,-8.77344 -23.9625,-13.86719 -6.74062,-4.15625 -12.80156,-9.32031 -17.97187,-15.30469 -4.60547,-5.02344 -7.89844,-11.10156 -9.58594,-17.69531 -1.76641,-6.74219 -1.76641,-13.82813 0,-20.57031 2.12891,-7.53125 6.07813,-14.42969 11.50156,-20.08594 5.96172,-5.90625 13.28516,-10.25781 21.32735,-12.67188 10.17187,-3.02343 20.79609,-4.24218 31.38906,-3.59375 13.65547,0.21875 27.24297,1.98438 40.49844,5.26563 z"
     id="path93"
     style="fill:#000000;stroke-width:1"
     inkscape:connector-curvature="0" />
  <path
     d="m 257.14922,706.16719 c 18.36875,17.67734 29.18594,41.75234 30.19297,67.19844 -1.52032,11.98593 -5.44297,23.53281 -11.53672,33.97031 -6.09297,10.4375 -14.23125,19.54687 -23.92735,26.77343 l -67.33593,59.0625 -32.82891,-37.30468 71.8875,-62.41407 c 5.50781,-4.48437 10.07031,-10.00781 13.42031,-16.26171 2.69297,-4.93594 4.24688,-10.40938 4.55157,-16.02188 0.2625,-5.28125 -0.8086,-10.54453 -3.11485,-15.30547 -2.37187,-5.09765 -5.43594,-9.84609 -9.10625,-14.11015 -3.70547,-4.16407 -7.98203,-7.78594 -12.70078,-10.76016 -4.37656,-2.82734 -9.4125,-4.475 -14.61641,-4.78281 -5.61796,-0.35157 -11.24609,0.46172 -16.53281,2.39062 -6.63828,2.70781 -12.72812,6.59844 -17.97187,11.47969 L 95.641406,792.5 62.812812,755.19062 130.38594,696.12188 c 8.33281,-8.68282 18.33828,-15.59454 29.41484,-20.32032 11.07734,-4.72656 22.99922,-7.16797 35.04609,-7.17968 24.90625,3.85312 47.28907,17.34218 62.30235,37.54531 z"
     id="path95"
     style="fill:#000000;stroke-width:1"
     inkscape:connector-curvature="0" />
  <path
     d="M 199.64375,626.33672 29.269766,669.14219 5.3071484,574.92031 c -3.2648516,-11.76953 -5.03526487,-23.9 -5.27107019,-36.10937 -0.30502046,-9.16485 1.32677329,-18.29063 4.79135139,-26.7836 2.9654063,-7.23359 7.9566324,-13.46093 14.3769454,-17.93593 7.211719,-5.00391 15.362422,-8.50313 23.962656,-10.28438 8.326485,-2.37578 17.053672,-3.02578 25.641641,-1.9125 7.892734,1.09453 15.388203,4.13594 21.806953,8.84844 7.274219,5.84297 13.303125,13.07969 17.732035,21.28437 5.91015,10.92579 10.34062,22.58516 13.17734,34.67422 L 133.02656,591.9 186.70312,578.26875 Z M 88.217187,556.74687 c -1.029687,-4.01249 -2.390625,-7.93281 -4.071875,-11.71953 -1.603125,-3.24531 -3.797656,-6.16406 -6.470625,-8.60859 -2.589843,-2.22969 -5.736718,-3.71719 -9.105859,-4.30469 -4.183125,-0.92109 -8.517812,-0.92109 -12.700937,0 -3.453907,0.45078 -6.722266,1.8211 -9.462735,3.96719 -2.740547,2.14609 -4.852812,4.98906 -6.113515,8.22969 -1.887969,7.2125 -1.887969,14.7875 0,22.00078 l 11.501562,45.4375 47.925547,-11.95703 z"
     id="path97"
     style="fill:#000000;stroke-width:1"
     inkscape:connector-curvature="0" />
  <path
     d="M 167.77422,474.21953 1.4724765,420.65234 50.836875,267.36094 l 37.86,11.95703 -34.265078,106.41875 28.274453,9.0875 26.59766,-82.74375 34.02812,11.00078 -26.59766,82.50469 28.75391,9.32578 35.94375,-111.43984 37.62266,11.95703 z"
     id="path99"
     style="fill:#000000;stroke-width:1"
     inkscape:connector-curvature="0" />
  <path
     d="m 338.14297,217.35312 c -4.99844,-1.11874 -9.775,-3.05937 -14.13672,-5.74062 -4.30234,-2.64922 -8.4625,-5.52266 -12.46094,-8.60859 l -11.50156,-8.36954 c -3.45781,-2.78203 -7.45547,-4.81718 -11.74141,-5.9789 -4.24531,-1.08281 -8.69609,-1.08281 -12.94062,0 -5.65313,1.15312 -10.92578,3.70156 -15.33672,7.41406 l -23.9625,17.21719 37.85937,51.41641 -40.01562,29.41406 -103.51953,-140.85391 77.39844,-56.43906 c 15.99062,-14.01016 35.725,-23.06766 56.7914,-26.06539 10.72422,0.36281 21.01875,4.30687 29.23047,11.20133 8.21172,6.89375 13.86563,16.33828 16.05938,26.82187 0.80859,6.28203 0.15312,12.66563 -1.91641,18.65313 -2.23906,6.41484 -5.56328,12.4 -9.825,17.69687 -4.59531,5.95703 -9.72891,11.48125 -15.33672,16.50078 6.44688,-4.80078 13.77422,-8.29375 21.56719,-10.28281 5.84922,-1.19844 11.88203,-1.19844 17.73203,0 5.35234,1.42969 10.44609,3.68828 15.09609,6.69453 4.79297,3.10938 9.34766,6.4586 13.90078,10.04531 l 13.89688,10.28282 c 4.58594,3.34609 9.68437,5.93047 15.09687,7.65312 z m -86.50469,-55.0039 C 268.89141,149.675 273.20312,138.43594 264.57656,125.52188 255.95,112.60859 243.25,114.76094 225.99687,127.19609 l -34.26484,23.91407 25.87891,34.91562 z"
     id="path101"
     style="fill:#000000;stroke-width:1"
     inkscape:connector-curvature="0" />
</svg>
